<svg width="32" height="33" viewBox="0 0 32 33" fill="none" xmlns="http://www.w3.org/2000/svg">
<path d="M25.92 17.8334C25.6267 17.8334 25.32 17.74 25.0267 17.6734C24.4327 17.5425 23.8489 17.3687 23.28 17.1534C22.6615 16.9283 21.9815 16.94 21.3711 17.1862C20.7606 17.4323 20.2628 17.8955 19.9733 18.4867L19.68 19.0867C18.3813 18.3643 17.188 17.467 16.1333 16.42C15.0864 15.3654 14.1891 14.172 13.4667 12.8734L14.0267 12.5C14.6178 12.2106 15.0811 11.7127 15.3272 11.1023C15.5734 10.4918 15.585 9.81191 15.36 9.19336C15.1483 8.62326 14.9746 8.03976 14.84 7.44669C14.7733 7.15336 14.72 6.84669 14.68 6.54003C14.5181 5.60085 14.0262 4.75035 13.2928 4.14168C12.5595 3.53301 11.6329 3.20617 10.68 3.22003H6.68001C6.10539 3.21463 5.53635 3.33311 5.01163 3.5674C4.4869 3.80169 4.01883 4.14629 3.63925 4.57774C3.25968 5.00918 2.97753 5.51735 2.812 6.06765C2.64647 6.61794 2.60145 7.19744 2.68001 7.76669C3.39033 13.3525 5.94138 18.5425 9.93021 22.5169C13.919 26.4912 19.1183 29.0234 24.7067 29.7134H25.2133C26.1966 29.7148 27.1459 29.3541 27.88 28.7C28.3018 28.3228 28.6388 27.8603 28.8686 27.3431C29.0985 26.826 29.216 26.2659 29.2133 25.7V21.7C29.197 20.7739 28.8598 19.8821 28.2591 19.1769C27.6585 18.4717 26.8318 17.9969 25.92 17.8334ZM26.5867 25.8334C26.5864 26.0227 26.5459 26.2098 26.4677 26.3822C26.3896 26.5546 26.2756 26.7084 26.1333 26.8334C25.9844 26.962 25.8102 27.0581 25.6219 27.1155C25.4336 27.1729 25.2354 27.1903 25.04 27.1667C20.0465 26.5264 15.4083 24.242 11.857 20.6737C8.30561 17.1055 6.04323 12.4565 5.42668 7.46003C5.40546 7.26472 5.42406 7.06713 5.48135 6.87922C5.53864 6.6913 5.63344 6.51694 5.76001 6.36669C5.88496 6.22447 6.03876 6.11048 6.21118 6.03232C6.38361 5.95415 6.5707 5.9136 6.76001 5.91336H10.76C11.0701 5.90646 11.3728 6.00787 11.6162 6.20012C11.8596 6.39238 12.0283 6.66345 12.0933 6.96669C12.1467 7.33114 12.2133 7.69114 12.2933 8.04669C12.4474 8.74955 12.6524 9.44027 12.9067 10.1134L11.04 10.98C10.8804 11.0533 10.7368 11.1573 10.6176 11.2862C10.4983 11.415 10.4056 11.5662 10.3449 11.731C10.2842 11.8957 10.2566 12.0709 10.2638 12.2463C10.271 12.4218 10.3127 12.5941 10.3867 12.7534C12.3056 16.8637 15.6097 20.1678 19.72 22.0867C20.0446 22.2201 20.4087 22.2201 20.7333 22.0867C20.8996 22.0272 21.0524 21.9353 21.1829 21.8163C21.3134 21.6973 21.4189 21.5535 21.4933 21.3934L22.32 19.5267C23.0093 19.7732 23.7128 19.978 24.4267 20.14C24.7822 20.22 25.1422 20.2867 25.5067 20.34C25.8099 20.4051 26.081 20.5738 26.2733 20.8172C26.4655 21.0605 26.5669 21.3633 26.56 21.6734L26.5867 25.8334Z" fill="white"/>
</svg>
