<svg width="40" height="40" viewBox="0 0 40 40" fill="none" xmlns="http://www.w3.org/2000/svg">
<g clip-path="url(#clip0_0_87)">
<path fill-rule="evenodd" clip-rule="evenodd" d="M10.8303 35.0004C10.3348 35.7659 10.0003 36.2504 10.0003 36.2504C10.0003 36.2504 5.00031 29.0098 5.00031 26.2504C5.00031 23.4909 7.24086 21.2504 10.0003 21.2504C12.7598 21.2504 15.0003 23.4909 15.0003 26.2504C15.0003 27.1559 14.462 28.5443 13.7387 30.0004" fill="#F4B943" fill-opacity="0.5"/>
<path fill-rule="evenodd" clip-rule="evenodd" d="M10.0353 34.0359C10.4442 33.6982 11.0414 33.6476 11.5098 33.9509C12.0892 34.3259 12.2548 35.1009 11.8798 35.6798C11.3714 36.4643 11.0286 36.9609 11.0286 36.9609C10.7953 37.2987 10.4109 37.5004 10.0003 37.5004C9.58976 37.5004 9.20531 37.2987 8.97198 36.9609C8.97198 36.9609 6.46031 33.3209 4.95253 30.1665C4.22475 28.6437 3.75031 27.207 3.75031 26.2504C3.75031 22.8009 6.55086 20.0004 10.0003 20.0004C13.4498 20.0004 16.2503 22.8009 16.2503 26.2504C16.2503 27.2859 15.6853 28.8904 14.8581 30.5565C14.5509 31.1743 13.8003 31.427 13.1825 31.1198C12.5642 30.8132 12.312 30.062 12.6192 29.4443C13.2387 28.197 13.7503 27.0259 13.7503 26.2504C13.7503 24.1809 12.0698 22.5004 10.0003 22.5004C7.93087 22.5004 6.25031 24.1809 6.25031 26.2504C6.25031 26.9498 6.67586 27.9748 7.20809 29.0882C8.04642 30.842 9.21254 32.7532 10.0353 34.0359Z" fill="#F77A40"/>
<path fill-rule="evenodd" clip-rule="evenodd" d="M30 17.5005H24.375C23.215 17.5005 22.1019 17.9614 21.2813 18.7819C20.4613 19.602 20 20.7152 20 21.8756C20 21.8756 20 21.876 20 21.8765C20 24.292 21.9581 26.2506 24.3738 26.2506C25.1538 26.2506 26.0144 26.2506 26.875 26.2506C29.2913 26.2506 31.25 28.2091 31.25 30.6256C31.25 33.0416 29.2913 35.0006 26.875 35.0006H10C9.31 35.0006 8.75 35.5606 8.75 36.2504C8.75 36.9402 9.31 37.5002 10 37.5002H26.875C30.6719 37.5002 33.75 34.4221 33.75 30.6256C33.75 26.8286 30.6719 23.7505 26.875 23.7505C26.0144 23.7505 25.1538 23.7505 24.3738 23.7505C23.3388 23.7505 22.5 22.9115 22.5 21.8765C22.5 21.876 22.5 21.8756 22.5 21.8756C22.5 21.3783 22.6975 20.9014 23.0494 20.5494C23.4006 20.198 23.8775 20.0001 24.375 20.0001C26.8875 20.0001 30 20.0001 30 20.0001C30.69 20.0001 31.25 19.4401 31.25 18.7503C31.25 18.0606 30.69 17.5005 30 17.5005Z" fill="#F77A40"/>
<path d="M10 27.5C10.6904 27.5 11.25 26.9404 11.25 26.25C11.25 25.5596 10.6904 25 10 25C9.30964 25 8.75 25.5596 8.75 26.25C8.75 26.9404 9.30964 27.5 10 27.5Z" fill="#F77A40"/>
<path fill-rule="evenodd" clip-rule="evenodd" d="M30.0003 2.50037C26.5509 2.50037 23.7503 5.30093 23.7503 8.75037C23.7503 9.70704 24.2248 11.1437 24.9525 12.6665C26.4603 15.8209 28.972 19.4609 28.972 19.4609C29.2053 19.7987 29.5898 20.0004 30.0003 20.0004C30.4109 20.0004 30.7953 19.7987 31.0286 19.4609C31.0286 19.4609 33.5403 15.8209 35.0481 12.6665C35.7759 11.1437 36.2503 9.70704 36.2503 8.75037C36.2503 5.30093 33.4498 2.50037 30.0003 2.50037ZM30.0003 16.4815C30.8214 15.1987 31.9664 13.317 32.7925 11.5882C33.3248 10.4748 33.7503 9.44982 33.7503 8.75037C33.7503 6.68093 32.0698 5.00037 30.0003 5.00037C27.9309 5.00037 26.2503 6.68093 26.2503 8.75037C26.2503 9.44982 26.6759 10.4748 27.2081 11.5882C28.0342 13.317 29.1792 15.1987 30.0003 16.4815Z" fill="#F77A40"/>
<path d="M30 10C30.6904 10 31.25 9.44036 31.25 8.75C31.25 8.05964 30.6904 7.5 30 7.5C29.3096 7.5 28.75 8.05964 28.75 8.75C28.75 9.44036 29.3096 10 30 10Z" fill="#F77A40"/>
</g>
<defs>
<clipPath id="clip0_0_87">
<rect width="40" height="40" fill="white"/>
</clipPath>
</defs>
</svg>
