<svg width="24" height="25" viewBox="0 0 24 25" fill="none" xmlns="http://www.w3.org/2000/svg">
<path d="M20.46 10.13C20.3196 8.66892 19.8032 7.26909 18.9612 6.06682C18.1191 4.86456 16.9801 3.90083 15.655 3.2695C14.3299 2.63816 12.8639 2.36072 11.3997 2.46421C9.93555 2.56769 8.52314 3.04856 7.3 3.86C6.2492 4.56265 5.36706 5.4893 4.71695 6.57339C4.06684 7.65749 3.6649 8.87211 3.54 10.13C3.41749 11.3797 3.57468 12.6409 4.00017 13.8223C4.42567 15.0036 5.1088 16.0755 6 16.96L11.3 22.27C11.393 22.3637 11.5036 22.4381 11.6254 22.4889C11.7473 22.5397 11.878 22.5658 12.01 22.5658C12.142 22.5658 12.2727 22.5397 12.3946 22.4889C12.5164 22.4381 12.627 22.3637 12.72 22.27L18 16.96C18.8912 16.0755 19.5743 15.0036 19.9998 13.8223C20.4253 12.6409 20.5825 11.3797 20.46 10.13ZM16.6 15.55L12 20.15L7.4 15.55C6.72209 14.8721 6.20281 14.0523 5.87947 13.1498C5.55614 12.2472 5.43679 11.2842 5.53 10.33C5.62382 9.36111 5.93177 8.42516 6.43157 7.58985C6.93138 6.75453 7.61056 6.04071 8.42 5.5C9.48095 4.79524 10.7263 4.4193 12 4.4193C13.2737 4.4193 14.5191 4.79524 15.58 5.5C16.387 6.03862 17.0647 6.74928 17.5644 7.58094C18.064 8.4126 18.3733 9.34461 18.47 10.31C18.5663 11.2674 18.4484 12.2343 18.125 13.1406C17.8016 14.0468 17.2807 14.8698 16.6 15.55ZM12 6.5C11.11 6.5 10.24 6.76392 9.49994 7.25839C8.75992 7.75286 8.18314 8.45566 7.84255 9.27793C7.50195 10.1002 7.41284 11.005 7.58647 11.8779C7.7601 12.7508 8.18869 13.5526 8.81802 14.182C9.44736 14.8113 10.2492 15.2399 11.1221 15.4135C11.995 15.5872 12.8998 15.4981 13.7221 15.1575C14.5443 14.8169 15.2471 14.2401 15.7416 13.5001C16.2361 12.76 16.5 11.89 16.5 11C16.4974 9.80734 16.0224 8.66428 15.1791 7.82094C14.3357 6.9776 13.1927 6.50265 12 6.5ZM12 13.5C11.5055 13.5 11.0222 13.3534 10.6111 13.0787C10.2 12.804 9.87952 12.4135 9.6903 11.9567C9.50109 11.4999 9.45158 10.9972 9.54804 10.5123C9.6445 10.0273 9.88261 9.58187 10.2322 9.23224C10.5819 8.88261 11.0273 8.6445 11.5123 8.54804C11.9972 8.45158 12.4999 8.50109 12.9567 8.6903C13.4135 8.87952 13.804 9.19996 14.0787 9.61108C14.3534 10.0222 14.5 10.5056 14.5 11C14.5 11.663 14.2366 12.2989 13.7678 12.7678C13.2989 13.2366 12.663 13.5 12 13.5Z" fill="#F77A40"/>
</svg>
