<svg width="40" height="40" viewBox="0 0 40 40" fill="none" xmlns="http://www.w3.org/2000/svg">
<g clip-path="url(#clip0_0_53)">
<path fill-rule="evenodd" clip-rule="evenodd" d="M27.5001 37.5H28.7499C29.7445 37.5 30.6982 37.105 31.4019 36.4019C32.1048 35.6981 32.5 34.7444 32.5 33.75C32.5 27.6963 32.5 12.3038 32.5 6.25C32.5 5.25563 32.1048 4.30188 31.4019 3.59813C30.6982 2.895 29.7445 2.5 28.7499 2.5C23.7376 2.5 12.5128 2.5 7.50048 2.5C6.5059 2.5 5.55215 2.895 4.8485 3.59813C4.14558 4.30188 3.75037 5.25563 3.75037 6.25C3.75037 12.3038 3.75037 27.6963 3.75037 33.75C3.75037 34.7444 4.14558 35.6981 4.8485 36.4019C5.55215 37.105 6.5059 37.5 7.50048 37.5C10.9225 37.5 17.2407 37.5 22.5002 37.5C23.19 37.5 23.75 36.94 23.75 36.25C23.75 35.56 23.19 35 22.5002 35C17.2407 35 10.9225 35 7.50048 35C7.16871 35 6.8508 34.8681 6.616 34.6338C6.38194 34.3994 6.24996 34.0812 6.24996 33.75C6.24996 27.6963 6.24996 12.3038 6.24996 6.25C6.24996 5.91875 6.38194 5.60062 6.616 5.36625C6.8508 5.13187 7.16871 5 7.50048 5C12.5128 5 23.7376 5 28.7499 5C29.0817 5 29.3996 5.13187 29.6344 5.36625C29.8685 5.60062 30.0004 5.91875 30.0004 6.25C30.0004 12.3038 30.0004 27.6963 30.0004 33.75C30.0004 34.0812 29.8685 34.3994 29.6344 34.6338C29.3996 34.8681 29.0817 35 28.7499 35C28.3678 35 27.9493 35 27.5001 35C26.8103 35 26.2503 35.56 26.2503 36.25C26.2503 36.94 26.8103 37.5 27.5001 37.5Z" fill="#F77A40"/>
<path fill-rule="evenodd" clip-rule="evenodd" d="M7.49933 19.375C7.49933 19.03 7.21997 18.75 6.87497 18.75H3.12497C2.77997 18.75 2.50061 19.03 2.50061 19.375V20.625C2.50061 20.97 2.77997 21.25 3.12497 21.25H6.87497C7.21997 21.25 7.49933 20.97 7.49933 20.625V19.375Z" fill="#F77A40"/>
<path fill-rule="evenodd" clip-rule="evenodd" d="M7.49933 13.125C7.49933 12.78 7.21997 12.5 6.87497 12.5H3.12497C2.77997 12.5 2.50061 12.78 2.50061 13.125V14.375C2.50061 14.72 2.77997 15 3.12497 15H6.87497C7.21997 15 7.49933 14.72 7.49933 14.375V13.125Z" fill="#F77A40"/>
<path fill-rule="evenodd" clip-rule="evenodd" d="M7.49933 25.625C7.49933 25.28 7.21997 25 6.87497 25H3.12497C2.77997 25 2.50061 25.28 2.50061 25.625V26.875C2.50061 27.22 2.77997 27.5 3.12497 27.5H6.87497C7.21997 27.5 7.49933 27.22 7.49933 26.875V25.625Z" fill="#F77A40"/>
<path fill-rule="evenodd" clip-rule="evenodd" d="M18.7486 6.2495C13.2296 6.2495 8.74854 10.7306 8.74854 16.2496C8.74854 21.7686 13.2296 26.2497 18.7486 26.2497C24.2677 26.2497 28.7487 21.7686 28.7487 16.2496C28.7487 10.7306 24.2677 6.2495 18.7486 6.2495ZM18.7486 8.7498C22.8881 8.7498 26.2484 12.1101 26.2484 16.2496C26.2484 20.3891 22.8881 23.7494 18.7486 23.7494C14.6092 23.7494 11.2488 20.3891 11.2488 16.2496C11.2488 12.1101 14.6092 8.7498 18.7486 8.7498Z" fill="#F77A40"/>
<path fill-rule="evenodd" clip-rule="evenodd" d="M18.7521 6.2495C17.8126 6.2495 16.8832 6.72236 16.1027 7.69397C14.8115 9.30104 13.8561 12.5207 13.8561 16.2496C13.8561 19.9785 14.8115 23.1981 16.1027 24.8052C16.8832 25.7768 17.8126 26.2497 18.7521 26.2497C19.6915 26.2497 20.6209 25.7768 21.4014 24.8052C22.6927 23.1981 23.6481 19.9785 23.6481 16.2496C23.6481 12.5207 22.6927 9.30104 21.4014 7.69397C20.6209 6.72236 19.6915 6.2495 18.7521 6.2495ZM18.7521 8.7498C18.9347 8.7498 19.0873 8.87703 19.247 9.03198C19.4528 9.23214 19.6412 9.49536 19.8179 9.80635C20.6431 11.2585 21.1479 13.6082 21.1479 16.2496C21.1479 18.891 20.6431 21.2407 19.8179 22.6928C19.6412 23.0038 19.4528 23.2671 19.247 23.4672C19.0873 23.6222 18.9347 23.7494 18.7521 23.7494C18.5695 23.7494 18.4168 23.6222 18.2571 23.4672C18.0513 23.2671 17.8629 23.0038 17.6863 22.6928C16.8611 21.2407 16.3563 18.891 16.3563 16.2496C16.3563 13.6082 16.8611 11.2585 17.6863 9.80635C17.8629 9.49536 18.0513 9.23214 18.2571 9.03198C18.4168 8.87703 18.5695 8.7498 18.7521 8.7498Z" fill="#F77A40"/>
<path fill-rule="evenodd" clip-rule="evenodd" d="M26.2659 16.041C26.1886 16.496 25.6818 16.815 25.0391 17.1511C23.5727 17.9182 21.3068 18.3848 18.7705 18.3848C16.2341 18.3848 13.9682 17.9182 12.5019 17.1511C11.8591 16.815 11.3523 16.496 11.275 16.041C11.1594 15.3606 10.5134 14.9024 9.83312 15.0176C9.15317 15.1332 8.69488 15.7792 8.81009 16.4595C8.95374 17.3035 9.50134 18.1369 10.4667 18.8307C12.1292 20.0251 15.218 20.8851 18.7705 20.8851C22.3229 20.8851 25.4117 20.0251 27.0742 18.8307C28.0396 18.1369 28.5872 17.3035 28.7308 16.4595C28.846 15.7792 28.3877 15.1332 27.7078 15.0176C27.0275 14.9024 26.3815 15.3606 26.2659 16.041Z" fill="#F77A40"/>
<path fill-rule="evenodd" clip-rule="evenodd" d="M25.8773 11.7277C24.6541 12.8539 21.9085 13.5411 18.7486 13.5411C15.5888 13.5411 12.8432 12.8539 11.62 11.7277C11.1125 11.2607 10.321 11.2931 9.85358 11.801C9.38655 12.3085 9.41899 13.1 9.92686 13.567C11.4504 14.9695 14.813 16.0414 18.7486 16.0414C22.6843 16.0414 26.0468 14.9695 27.5704 13.567C28.0783 13.1 28.1107 12.3085 27.6437 11.801C27.1763 11.2931 26.3848 11.2607 25.8773 11.7277Z" fill="#F77A40"/>
<path fill-rule="evenodd" clip-rule="evenodd" d="M31.25 8.20375L36.25 9.11249L32.2263 31.25L31.25 31.0725V8.20375Z" fill="#F4B943" fill-opacity="0.5"/>
<path fill-rule="evenodd" clip-rule="evenodd" d="M31.4737 6.97374C31.1087 6.90749 30.7338 7.00688 30.4488 7.24438C30.1644 7.48188 30 7.83313 30 8.20375V31.0725C30 31.6769 30.4319 32.1944 31.0263 32.3025L32.0031 32.48C32.6825 32.6031 33.3331 32.1525 33.4563 31.4738L37.48 9.33624C37.6031 8.65687 37.1525 8.00625 36.4737 7.8825L31.4737 6.97374ZM32.5 22.755L34.7969 10.1188L32.5 9.70188V22.755Z" fill="#F77A40"/>
<path fill-rule="evenodd" clip-rule="evenodd" d="M16.25 30H21.25C21.94 30 22.5 29.44 22.5 28.75C22.5 28.06 21.94 27.5 21.25 27.5H16.25C15.56 27.5 15 28.06 15 28.75C15 29.44 15.56 30 16.25 30Z" fill="#F77A40"/>
<path fill-rule="evenodd" clip-rule="evenodd" d="M15 33.75H22.5C23.19 33.75 23.7506 33.19 23.7506 32.5C23.7506 31.81 23.19 31.25 22.5 31.25H15C14.31 31.25 13.7494 31.81 13.7494 32.5C13.7494 33.19 14.31 33.75 15 33.75Z" fill="#F77A40"/>
</g>
<defs>
<clipPath id="clip0_0_53">
<rect width="40" height="40" fill="white"/>
</clipPath>
</defs>
</svg>
