<svg width="32" height="32" viewBox="0 0 32 32" fill="none" xmlns="http://www.w3.org/2000/svg">
<g clip-path="url(#clip0_0_99)">
<path fill-rule="evenodd" clip-rule="evenodd" d="M23.465 12.5L25.168 9.94548C25.2915 9.76048 25.473 9.62147 25.684 9.55147L28.684 8.55147C29.022 8.43847 29.3945 8.51448 29.662 8.75048C29.929 8.98598 30.0505 9.34647 29.9805 9.69597L29.048 14.3595L29.8945 16.053C30.087 16.438 30.0115 16.9025 29.707 17.207L27.707 19.207C27.5195 19.3945 27.265 19.5 27 19.5H22C21.448 19.5 21 19.052 21 18.5C21 17.948 21.448 17.5 22 17.5H26.586L27.783 16.3025L27.1055 14.947C27.006 14.7485 26.976 14.522 27.0195 14.304L27.6815 10.9935L26.6415 11.34L24.832 14.0545C24.6465 14.333 24.3345 14.5 24 14.5H6.00001C5.85501 14.5 5.7025 14.587 5.54 14.685C5.273 14.8455 5.008 15.0705 4.771 15.3175C4.5305 15.568 4.31851 15.842 4.16801 16.105C4.08251 16.255 4.00001 16.386 4.00001 16.5C4.00001 16.7425 4.201 16.9575 4.398 17.1395C4.5985 17.3245 4.81651 17.5 5.00001 17.5H10C10.242 17.5 10.476 17.588 10.6585 17.7475L18.3755 24.5H20.057L16.1865 19.081C15.9685 18.7765 15.9395 18.3755 16.111 18.0425C16.282 17.7095 16.6255 17.5 17 17.5H18C18.552 17.5 19 17.948 19 18.5C19 18.768 18.8945 19.0115 18.7225 19.191L22.8135 24.919C23.0315 25.2235 23.0605 25.6245 22.889 25.9575C22.718 26.2905 22.3745 26.5 22 26.5H18C17.758 26.5 17.524 26.412 17.3415 26.2525L9.6245 19.5H5.00001C4.43751 19.5 3.657 19.1765 3.0425 18.6105C2.426 18.0415 2.00001 17.258 2.00001 16.5C2.00001 15.8275 2.52101 14.7735 3.32801 13.9325C4.13551 13.091 5.19101 12.5 6.00001 12.5H23.465Z" fill="#F77A40"/>
<path fill-rule="evenodd" clip-rule="evenodd" d="M17 13.5L10 13.5L18 6.5L22 6.5L17 13.5Z" fill="#F4B943" fill-opacity="0.5"/>
<path fill-rule="evenodd" clip-rule="evenodd" d="M17 14.5C17.323 14.5 17.626 14.344 17.8135 14.081L22.8135 7.081C23.0315 6.7765 23.0605 6.3755 22.889 6.0425C22.718 5.7095 22.3745 5.5 22 5.5H18C17.758 5.5 17.524 5.588 17.3415 5.7475L9.3415 12.7475C9.028 13.022 8.91749 13.4615 9.06399 13.8515C9.21049 14.2415 9.58349 14.5 9.99999 14.5L17 14.5ZM18.3755 7.5L12.6615 12.5L16.4855 12.5L20.057 7.5L18.3755 7.5Z" fill="#F77A40"/>
</g>
<defs>
<clipPath id="clip0_0_99">
<rect width="32" height="32" fill="white"/>
</clipPath>
</defs>
</svg>
