<svg width="40" height="40" viewBox="0 0 40 40" fill="none" xmlns="http://www.w3.org/2000/svg">
<g clip-path="url(#clip0_0_69)">
<path fill-rule="evenodd" clip-rule="evenodd" d="M19.7839 24.4088C20.7419 22.905 21.2501 21.1581 21.2501 19.375C21.2501 17.592 20.7419 15.8451 19.7839 14.3412C19.4138 13.7592 18.6405 13.5871 18.0584 13.9579C17.4764 14.3279 17.3043 15.1013 17.6751 15.6833C18.3775 16.7868 18.7505 18.0669 18.7505 19.375C18.7505 20.6832 18.3775 21.9632 17.6751 23.0667C17.3043 23.6488 17.4764 24.4221 18.0584 24.7922C18.6405 25.163 19.4138 24.9909 19.7839 24.4088Z" fill="#F77A40"/>
<path fill-rule="evenodd" clip-rule="evenodd" d="M25 15H33.75L36.25 10.625L33.75 6.25H13.125V15H20" fill="#F4B943" fill-opacity="0.5"/>
<path fill-rule="evenodd" clip-rule="evenodd" d="M14.375 13.7501H20C20.69 13.7501 21.25 14.3101 21.25 15C21.25 15.6899 20.69 16.2499 20 16.2499H13.125C12.4344 16.2499 11.875 15.6904 11.875 15V6.25C11.875 5.55962 12.4344 5.00006 13.125 5.00006H33.75C34.1987 5.00006 34.6125 5.24025 34.835 5.62962L37.335 10.0046C37.555 10.3892 37.555 10.8608 37.335 11.2454L34.835 15.6204C34.6125 16.0097 34.1987 16.2499 33.75 16.2499H25C24.31 16.2499 23.75 15.6899 23.75 15C23.75 14.3101 24.31 13.7501 25 13.7501H33.0244L34.81 10.625L33.0244 7.49994H14.375V13.7501Z" fill="#F77A40"/>
<path fill-rule="evenodd" clip-rule="evenodd" d="M16.607 11.2818C15.1711 10.4427 13.538 10.0002 11.8753 10.0002C6.70115 10.0002 2.50052 14.2009 2.50052 19.375C2.50052 22.58 4.13734 25.5626 6.84149 27.2836C7.42354 27.6544 8.19616 27.4823 8.56695 26.9003C8.93701 26.3182 8.76564 25.5456 8.1836 25.1748C6.20109 23.9125 5.00007 21.7254 5.00007 19.375C5.00007 15.5806 8.08093 12.4998 11.8753 12.4998C13.0948 12.4998 14.2921 12.8241 15.3454 13.4401C15.9408 13.788 16.7067 13.5871 17.0554 12.9917C17.4033 12.3964 17.2024 11.6297 16.607 11.2818Z" fill="#F77A40"/>
<path fill-rule="evenodd" clip-rule="evenodd" d="M11.1731 34.9994H11.1637H11.155C11.1294 34.9994 11.1044 34.9988 11.0787 34.9981L11.0244 34.9969L11.0019 34.9963H10.9844C10.9587 34.995 10.9331 34.9944 10.9088 34.9931L10.8563 34.9912L10.8313 34.99L10.8144 34.9894C10.7888 34.9881 10.7637 34.9869 10.7387 34.985L10.6881 34.9825L10.6606 34.9806L10.6456 34.9794C10.62 34.9775 10.5944 34.9756 10.57 34.9738L10.5219 34.97L10.4906 34.9675L10.4775 34.9662C10.4525 34.9637 10.4269 34.9619 10.4012 34.9594L10.3556 34.955L10.3137 34.9506L10.3113 34.95C10.285 34.9475 10.2594 34.9444 10.2338 34.9412L10.1912 34.9362L10.145 34.9306C10.1188 34.9275 10.0925 34.9237 10.0669 34.9206L10.0269 34.915L9.98 34.9081C9.95375 34.9044 9.92688 34.9006 9.90063 34.8962L9.89313 34.895C9.84063 34.8869 9.78813 34.8781 9.73563 34.8694L9.72938 34.8681C9.67688 34.8588 9.62375 34.8488 9.57125 34.8388L9.56687 34.8381C9.51375 34.8275 9.46125 34.8169 9.4075 34.805H9.40563C8.56875 34.625 7.77563 34.325 7.04625 33.9244L7.04563 33.9237C7.0225 33.9112 6.99938 33.8988 6.97688 33.8856L6.94188 33.8663L6.90375 33.8444C6.8825 33.8319 6.86063 33.8194 6.83938 33.8069L6.805 33.7869L6.76625 33.7638L6.76375 33.7625C6.74375 33.7506 6.72437 33.7388 6.70437 33.7263L6.6975 33.7225L6.6875 33.7162L6.66937 33.705L6.64 33.6869L6.62562 33.6775C6.6075 33.6663 6.58938 33.655 6.57125 33.6438L6.56125 33.6375L6.5475 33.6287L6.535 33.6206L6.51125 33.605L6.49375 33.5938L6.47438 33.5812L6.44688 33.5631L6.42625 33.55L6.40313 33.5344L6.38688 33.5231L6.35938 33.505L6.31563 33.475L6.29313 33.46C4.495 32.2206 3.18187 30.3262 2.70125 28.1225L2.69375 28.0888L2.68 28.0231C2.67563 28.0006 2.67125 27.9787 2.66687 27.9569L2.65375 27.8906L2.64625 27.8519L2.64125 27.8238L2.63688 27.7981L2.62938 27.7569L2.61813 27.69L2.6075 27.6231L2.60313 27.5969L2.60063 27.5819L2.59687 27.5562L2.5925 27.5275L2.59062 27.5125L2.58687 27.4887L2.585 27.4731L2.57812 27.4213L2.57062 27.3638L2.56875 27.3537L2.56625 27.33L2.56375 27.3088L2.56063 27.2856L2.55875 27.2688L2.55688 27.2544L2.555 27.2362L2.55312 27.2175L2.55125 27.1994L2.54813 27.1706L2.54562 27.145C2.54312 27.1256 2.54125 27.1063 2.53938 27.0863L2.53875 27.0813L2.5375 27.0619L2.53438 27.0338L2.53313 27.0125L2.53125 26.9969L2.53 26.9781L2.52875 26.9594L2.52687 26.9438L2.52563 26.9231L2.52313 26.8925L2.52188 26.8706C2.52 26.8506 2.51875 26.83 2.5175 26.8094L2.51438 26.7556L2.51313 26.7375L2.5125 26.7225L2.51125 26.7L2.51062 26.6812L2.51 26.6681L2.50875 26.6438L2.5075 26.6138L2.50688 26.5938C2.50563 26.5725 2.505 26.5519 2.50438 26.5306L2.50312 26.4756L2.5025 26.4594L2.50187 26.445V26.4194L2.50125 26.4019V26.39L2.50062 26.3631V26.3344L2.5 26.3144C2.5 26.2925 2.5 26.2712 2.5 26.25C2.5 26.2281 2.5 26.2063 2.5 26.185L2.50062 26.1369L2.50125 26.1087L2.50187 26.0806L2.5025 26.0506V26.0331C2.50375 25.9894 2.505 25.9456 2.50688 25.9019L2.50875 25.8562L2.51 25.8281L2.51125 25.8L2.51375 25.7562C2.72813 21.9106 5.43125 18.7237 9.03687 17.7831L9.04 17.7819C9.12625 17.7594 9.21375 17.7381 9.30188 17.7181L9.3075 17.7169C9.33625 17.7106 9.36437 17.7037 9.39312 17.6975L9.39688 17.6969C9.45438 17.6844 9.51187 17.6725 9.57 17.6612L9.57812 17.66C9.60562 17.6544 9.63375 17.6494 9.66187 17.6437L9.67 17.6425C9.72688 17.6325 9.78375 17.6225 9.84125 17.6131L9.85063 17.6112C9.87875 17.6069 9.90625 17.6025 9.93375 17.5988L9.945 17.5969C9.97375 17.5925 10.0019 17.5888 10.0306 17.5844L10.0812 17.5775L10.1162 17.5731L10.1263 17.5719C10.1538 17.5681 10.1812 17.565 10.2087 17.5612L10.2225 17.56C10.25 17.5569 10.2781 17.5537 10.3062 17.5506L10.3556 17.545L10.3944 17.5412L10.4038 17.5406C10.4313 17.5381 10.4587 17.5356 10.4862 17.5331L10.5019 17.5319C10.5294 17.5294 10.5569 17.5269 10.5844 17.525L10.6325 17.5213L10.6812 17.5181H10.6838C10.7113 17.5162 10.7394 17.5144 10.7669 17.5131L10.7831 17.5125C10.8106 17.5106 10.8381 17.5094 10.865 17.5081L10.9119 17.5063L10.9656 17.5044C10.9937 17.5037 11.0219 17.5031 11.0506 17.5025L11.0663 17.5019C11.0938 17.5013 11.1212 17.5006 11.1487 17.5006L11.1938 17.5H11.25L11.3394 17.5006C11.4 17.5012 11.4612 17.5025 11.5219 17.5044H11.5225L11.605 17.5069L11.6194 17.5075L11.6469 17.5087L11.6781 17.5106C11.8725 17.52 12.065 17.5356 12.2556 17.5575H12.2581C13.4012 17.6894 14.4781 18.0412 15.4444 18.5706L15.4706 18.585C15.4706 18.585 15.5025 18.6025 15.5 18.6012L15.5212 18.6131L15.5625 18.6363C15.5625 18.6363 15.5756 18.6438 15.5706 18.6413L15.59 18.6519C15.59 18.6519 15.5981 18.6569 15.5944 18.6544L15.6556 18.69L15.7 18.7156C15.7 18.7156 15.7169 18.7263 15.7131 18.7238L15.7338 18.7363C15.7338 18.7363 15.74 18.74 15.7356 18.7375L15.805 18.7794C15.805 18.7794 15.8156 18.7856 15.8119 18.7838L15.835 18.7981C15.835 18.7981 15.8581 18.8119 15.8556 18.81L15.8763 18.8231C15.8763 18.8231 15.88 18.8256 15.8756 18.8225L15.9462 18.8675C15.9462 18.8675 15.9556 18.8738 15.9513 18.8706L15.9694 18.8819C15.9694 18.8819 16.0006 18.9025 15.9987 18.9013L16.0162 18.9125C16.0162 18.9125 16.025 18.9181 16.0231 18.9169L16.0575 18.9394C16.0575 18.9394 16.07 18.9475 16.0656 18.945L16.0856 18.9581C16.0856 18.9581 16.0931 18.9631 16.09 18.9606L16.1544 19.0044C16.1544 19.0044 16.1656 19.0119 16.1625 19.01L16.1888 19.0275C16.1888 19.0275 16.205 19.0394 16.2019 19.0369L16.2231 19.0513C16.2231 19.0513 16.2287 19.0556 16.225 19.0525L16.2906 19.0988C16.2906 19.0988 16.3019 19.1063 16.2981 19.1037L16.3181 19.1181C16.3181 19.1181 16.34 19.1338 16.3375 19.1319L16.3581 19.1469C16.3581 19.1469 16.3625 19.15 16.3613 19.1488L16.4031 19.1794C16.4031 19.1794 16.4119 19.1856 16.4069 19.1819L16.4256 19.1956C16.4256 19.1956 16.435 19.2025 16.4306 19.1994L16.4456 19.2106C16.4456 19.2106 16.4763 19.2331 16.475 19.2325L16.4919 19.245C16.4919 19.245 16.5031 19.2531 16.5006 19.2519L16.53 19.2737C16.53 19.2737 16.5419 19.2825 16.5381 19.28L16.5581 19.295C16.5581 19.295 16.5656 19.3013 16.5625 19.2988L16.6237 19.3456C16.6237 19.3456 16.6356 19.355 16.6325 19.3525L16.6544 19.37C16.6544 19.37 16.6706 19.3825 16.6675 19.38L16.6888 19.3969C16.6888 19.3969 16.6944 19.4013 16.6906 19.3988L16.7531 19.4488C16.7531 19.4488 16.7644 19.4575 16.7606 19.4544L16.7775 19.4687C16.7775 19.4687 16.7981 19.4856 16.7963 19.4837L16.8175 19.5012C16.8175 19.5012 16.8262 19.5087 16.825 19.5075L16.8587 19.5356C16.8587 19.5356 16.8669 19.5425 16.8619 19.5387L16.8806 19.5544C16.8806 19.5544 16.89 19.5619 16.8856 19.5581L16.8988 19.5694C16.8988 19.5694 16.9281 19.5944 16.9275 19.5938L16.9438 19.6075C16.9438 19.6075 16.9562 19.6181 16.9537 19.6162L16.9781 19.6375C16.9781 19.6375 16.99 19.6475 16.9863 19.6444L17.0062 19.6619C17.0062 19.6619 17.0138 19.6681 17.0106 19.6656L17.0681 19.7169C17.0681 19.7169 17.0806 19.7275 17.0775 19.725L17.0962 19.7419C17.0962 19.7419 17.1112 19.755 17.1088 19.7531L17.13 19.7719C17.13 19.7719 17.135 19.7769 17.1319 19.7738L17.1906 19.8281C17.1906 19.8281 17.2012 19.8375 17.1975 19.8344L17.2125 19.8481C17.2125 19.8481 17.2325 19.8663 17.2306 19.865L17.2512 19.8844C17.2512 19.8844 17.2625 19.895 17.2612 19.8937L17.2888 19.92C17.2888 19.92 17.2962 19.9275 17.2925 19.9238L17.3112 19.9413C17.3112 19.9413 17.32 19.95 17.3156 19.9456L17.3269 19.9563C17.3269 19.9563 17.3556 19.9844 17.355 19.9838L17.3706 19.9987C17.3706 19.9987 17.3831 20.0112 17.3806 20.0094L17.4019 20.0294C17.4019 20.0294 17.4125 20.04 17.4094 20.0375L17.4294 20.0569C17.4294 20.0569 17.4362 20.0638 17.4331 20.0606L17.4875 20.1156C17.4875 20.1156 17.4994 20.1275 17.4963 20.1244L17.5125 20.1413C17.5125 20.1413 17.5269 20.1556 17.5244 20.1537L17.545 20.175C17.545 20.175 17.5513 20.1813 17.5506 20.1806L17.585 20.2169C17.585 20.2169 17.59 20.2219 17.5856 20.2175L17.6025 20.2344C17.6025 20.2344 17.6125 20.2456 17.6088 20.2413L17.6213 20.255C17.6213 20.255 17.6406 20.275 17.6388 20.2737L17.6587 20.295C17.6587 20.295 17.6713 20.3081 17.6694 20.3063L17.6925 20.3312C17.6925 20.3312 17.7006 20.34 17.6969 20.3362L17.715 20.3556C17.715 20.3556 17.7231 20.365 17.7187 20.36L17.7281 20.37C17.7281 20.37 17.7581 20.4038 17.7575 20.4031L17.7706 20.4169C17.7706 20.4169 17.7825 20.4306 17.7806 20.4281L17.7981 20.4481C17.7981 20.4481 17.8087 20.46 17.8062 20.4575L17.825 20.4787C17.825 20.4787 17.8313 20.4862 17.8288 20.4825L17.8794 20.5413C17.8794 20.5413 17.8906 20.5544 17.8875 20.5506L17.9019 20.5669C17.9019 20.5669 17.9156 20.5831 17.9138 20.5813L17.9331 20.6044C17.9331 20.6044 17.9425 20.615 17.9413 20.6137L17.9694 20.6475C17.9694 20.6475 17.9744 20.6531 17.9706 20.6487L17.9862 20.6675C17.9862 20.6675 17.9956 20.6787 17.9919 20.6744L18.0031 20.6875C18.0031 20.6875 18.0219 20.7106 18.0206 20.7094L18.0387 20.7319C18.0387 20.7319 18.0506 20.7463 18.0494 20.7444L18.0694 20.7687C18.0694 20.7687 18.0769 20.7787 18.0737 20.7744L18.0912 20.7962C18.0912 20.7962 18.0981 20.805 18.0956 20.8019L18.1425 20.8612C18.1425 20.8612 18.1531 20.8756 18.1512 20.8725L18.1669 20.8925C18.1669 20.8925 18.1775 20.9062 18.175 20.9031L18.1931 20.9262C18.1931 20.9262 18.1981 20.9331 18.1956 20.93L18.2431 20.9925C18.2431 20.9925 18.2525 21.0056 18.25 21.0013L18.2625 21.0181C18.2625 21.0181 18.2762 21.0369 18.275 21.035L18.2925 21.0588C18.2925 21.0588 18.3019 21.0713 18.3006 21.07L18.325 21.1025C18.325 21.1025 18.33 21.11 18.3269 21.1056L18.3419 21.1256C18.3419 21.1256 18.3494 21.1369 18.3462 21.1319L18.3556 21.145C18.3556 21.145 18.3756 21.1731 18.375 21.1719L18.39 21.1931C18.39 21.1931 18.4 21.2081 18.3988 21.2056L18.4169 21.2313C18.4169 21.2313 18.4244 21.2425 18.4219 21.2387L18.4375 21.2613C18.4375 21.2613 18.4437 21.27 18.4412 21.2663L18.485 21.3294C18.485 21.3294 18.4944 21.3431 18.4919 21.34L18.5063 21.3613C18.5063 21.3613 18.5169 21.3775 18.515 21.3744L18.5312 21.3981C18.5312 21.3981 18.535 21.4044 18.5325 21.4006L18.5769 21.4675C18.5769 21.4675 18.585 21.48 18.5819 21.4756L18.5931 21.4931C18.5931 21.4931 18.6081 21.5156 18.6069 21.5138L18.6219 21.5375C18.6219 21.5375 18.6294 21.5488 18.6287 21.5475L18.65 21.5819C18.65 21.5819 18.6562 21.5912 18.6531 21.5862L18.6669 21.6075C18.6669 21.6075 18.6731 21.6175 18.6694 21.6125L18.6781 21.6263C18.6781 21.6263 18.7012 21.6631 18.7006 21.6625L18.7106 21.6781C18.7106 21.6781 18.7188 21.6919 18.7169 21.6887L18.7337 21.7162C18.7337 21.7162 18.7425 21.7306 18.74 21.7263L18.7537 21.7494C18.7537 21.7494 18.7581 21.7569 18.7556 21.7531L18.7962 21.8206C18.7962 21.8206 18.8038 21.8331 18.8013 21.83L18.8144 21.8525C18.8144 21.8525 18.8263 21.8725 18.825 21.87L18.8381 21.8925C18.8381 21.8925 18.8412 21.8975 18.8387 21.8937L18.8794 21.965C18.8794 21.965 18.8856 21.9762 18.8825 21.9712L18.8931 21.99C18.8931 21.99 18.91 22.02 18.9087 22.0181L18.92 22.0381C18.92 22.0381 18.925 22.0475 18.9237 22.0456L18.9444 22.0825C18.9444 22.0825 18.9513 22.095 18.9487 22.0906L18.96 22.1112C18.96 22.1112 18.9644 22.12 18.9625 22.1163L18.9988 22.185C18.9988 22.185 19.005 22.1962 19.0031 22.1931L19.0187 22.2231C19.0187 22.2231 19.0281 22.2413 19.0263 22.2375L19.0375 22.2594C19.0375 22.2594 19.0406 22.265 19.0381 22.2606L19.0756 22.3338C19.0756 22.3338 19.0806 22.3437 19.0781 22.34L19.0906 22.365C19.0906 22.365 19.1044 22.3919 19.1031 22.3887L19.1069 22.3969C19.1225 22.4294 19.1381 22.4619 19.1538 22.4944L19.1562 22.5H33.75C34.0812 22.5 34.3994 22.6319 34.6338 22.8662L37.1338 25.3662C37.555 25.7875 37.6206 26.4475 37.29 26.9431L34.79 30.6931C34.4406 31.2181 33.755 31.4 33.1913 31.1181L31.34 30.1925L28.1931 32.29C27.8725 32.5038 27.4706 32.5581 27.105 32.4356L23.5469 31.25H18.43C16.9119 33.425 14.4306 34.8794 11.6075 34.9925L11.5831 34.9938L11.5675 34.9944L11.5519 34.995L11.5319 34.9956H11.5231L11.4769 34.9969L11.4456 34.9975L11.4337 34.9981C11.4337 34.9981 11.4281 34.9981 11.4344 34.9981H11.4269L11.4012 34.9988L11.3494 34.9994H11.3256L11.25 35H11.1938L11.1731 34.9994ZM11.5294 34.9956H11.5344C11.5275 34.9956 11.5294 34.9956 11.5294 34.9956ZM18.3444 25C17.8225 25.0094 17.3294 24.6875 17.145 24.1694L17.1344 24.1394L17.0144 23.8319L16.9675 23.7225L16.9681 23.725L16.9425 23.6669L16.9438 23.6706L16.9319 23.6444L16.8931 23.5613L16.8937 23.5631L16.8119 23.3981C16.8119 23.3981 16.8094 23.3925 16.8144 23.4031L16.8069 23.3888C16.8069 23.3888 16.7975 23.37 16.8013 23.3769L16.7875 23.3506C16.7875 23.3506 16.7813 23.3394 16.7869 23.35L16.7562 23.2925L16.7513 23.2825C16.7513 23.2825 16.7444 23.27 16.7475 23.2763L16.73 23.2437C16.73 23.2437 16.725 23.235 16.7306 23.245L16.7244 23.2337C16.7244 23.2337 16.7075 23.2038 16.7112 23.2106L16.7006 23.1906L16.6106 23.0363C16.6106 23.0363 16.6056 23.0287 16.6119 23.0387L16.6019 23.0225C16.6019 23.0225 16.5938 23.0081 16.5975 23.015L16.5831 22.9912C16.5831 22.9912 16.575 22.9781 16.5812 22.9881L16.5769 22.9813C16.5769 22.9813 16.5537 22.9444 16.5581 22.9506L16.55 22.9375C16.5438 22.9275 16.55 22.9375 16.55 22.9375L16.54 22.9219C16.54 22.9219 16.5337 22.9125 16.5381 22.9187L16.5194 22.8894C16.5194 22.8894 16.5119 22.8775 16.5181 22.8875L16.5081 22.8719C16.5081 22.8719 16.4931 22.8488 16.4969 22.855L16.4875 22.84C16.4875 22.84 16.4794 22.8275 16.4856 22.8375L16.4506 22.7844C16.4506 22.7844 16.4462 22.7781 16.4531 22.7881L16.4412 22.7706C16.4412 22.7706 16.4306 22.755 16.435 22.7606L16.4225 22.7431C16.4225 22.7431 16.4131 22.7287 16.42 22.7387L16.3856 22.6887C16.3856 22.6887 16.3794 22.68 16.3863 22.69L16.3744 22.6731C16.3744 22.6731 16.3663 22.6619 16.3706 22.6681L16.3556 22.6463C16.3556 22.6463 16.345 22.6319 16.3519 22.6413L16.3431 22.6281C16.3431 22.6281 16.3231 22.6006 16.3275 22.6062L16.3188 22.5944C16.3188 22.5944 16.3106 22.5837 16.3175 22.5931L16.3062 22.5775C16.3062 22.5775 16.3006 22.57 16.305 22.5763L16.2844 22.5481C16.2844 22.5481 16.2756 22.5356 16.2825 22.545L16.27 22.5288C16.27 22.5288 16.2562 22.5094 16.2606 22.5156L16.2494 22.5012C16.2494 22.5012 16.24 22.4881 16.2469 22.4975L16.2094 22.4481C16.2094 22.4481 16.2044 22.4413 16.2113 22.4506L16.1981 22.4338C16.1981 22.4338 16.1875 22.42 16.1925 22.4256L16.1788 22.4088C16.1788 22.4088 16.1675 22.3944 16.175 22.4038L16.1381 22.3569C16.1381 22.3569 16.1306 22.3481 16.1381 22.3575L16.125 22.3412C16.125 22.3412 16.1175 22.3313 16.1225 22.3375L16.1056 22.3163C16.1056 22.3163 16.0938 22.3019 16.1013 22.3113L16.0887 22.2962C16.0887 22.2962 16.07 22.2731 16.075 22.2787L16.065 22.2675C16.065 22.2675 16.0563 22.2563 16.0638 22.265L16.0512 22.2506C16.0512 22.2506 16.0462 22.2444 16.0506 22.25L16.0269 22.2219C16.0269 22.2219 16.0181 22.2106 16.0256 22.22L16.0112 22.2031C16.0112 22.2031 15.9975 22.1869 16.0025 22.1925L15.99 22.1788C15.99 22.1788 15.9794 22.1656 15.9869 22.175L15.9444 22.1263L15.9338 22.1144C15.9338 22.1144 15.9231 22.1019 15.9281 22.1075L15.9131 22.0906C15.9131 22.0906 15.9013 22.0769 15.9088 22.0856L15.9031 22.0794C15.9031 22.0794 15.8731 22.0463 15.8781 22.0519L15.8694 22.0419C15.8612 22.0331 15.8694 22.0419 15.8694 22.0419L15.8556 22.0269C15.8556 22.0269 15.8481 22.0187 15.8531 22.0244L15.8331 22.0031C15.8331 22.0031 15.8213 21.99 15.8294 21.9981L15.8156 21.9837C15.8156 21.9837 15.7969 21.9638 15.8019 21.9688L15.7906 21.9575C15.7906 21.9575 15.7806 21.9469 15.7888 21.955L15.7756 21.9419C15.7706 21.9362 15.7756 21.9419 15.7756 21.9419L15.7438 21.9088L15.7331 21.8969C15.7331 21.8969 15.7187 21.8825 15.7237 21.8875L15.71 21.8738C15.71 21.8738 15.6981 21.8613 15.7062 21.87L15.6606 21.8244L15.65 21.8131C15.65 21.8131 15.6394 21.8025 15.6444 21.8075L15.6269 21.7906C15.6269 21.7906 15.6144 21.7781 15.6225 21.7863L15.6144 21.7788C15.6144 21.7788 15.5856 21.75 15.5906 21.755L15.5806 21.7456C15.5806 21.7456 15.5719 21.7369 15.58 21.745L15.5662 21.7319C15.5662 21.7319 15.5581 21.7244 15.5638 21.7294L15.54 21.7069C15.54 21.7069 15.5288 21.6963 15.5375 21.7044L15.5231 21.6913C15.5231 21.6913 15.5038 21.6725 15.5088 21.6775L15.4962 21.6656C15.4962 21.6656 15.4856 21.6556 15.4938 21.6637L15.4469 21.6206C15.4469 21.6206 15.4419 21.6156 15.4506 21.6237L15.4356 21.61C15.4356 21.61 15.4206 21.5969 15.4256 21.6019L15.4094 21.5869C15.4094 21.5869 15.3975 21.5763 15.4063 21.5844L15.3606 21.5438C15.3606 21.5438 15.3531 21.5369 15.3619 21.545L15.3469 21.5319C15.3469 21.5319 15.3356 21.5219 15.3412 21.5269L15.3206 21.5088C15.3206 21.5088 15.3081 21.4987 15.3175 21.5062L15.3081 21.4987C15.3081 21.4987 15.2788 21.4731 15.2844 21.4781L15.2725 21.4681C15.2725 21.4681 15.2631 21.46 15.2719 21.4675L15.2581 21.4563C15.2581 21.4563 15.25 21.4494 15.2556 21.4538L15.2262 21.4294C15.2262 21.4294 15.2175 21.4225 15.2269 21.43L15.2125 21.4188C15.2125 21.4188 15.1919 21.4012 15.1975 21.4062L15.1825 21.3937C15.1825 21.3937 15.1719 21.385 15.1806 21.3925L15.1306 21.3525C15.1306 21.3525 15.1256 21.3481 15.1344 21.355L15.1194 21.3438C15.1194 21.3438 15.1038 21.3306 15.11 21.3356L15.0906 21.3206C15.0906 21.3206 15.0787 21.3113 15.0881 21.3188L15.0369 21.2788L15.0262 21.2713C15.0262 21.2713 15.0144 21.2619 15.0206 21.2669L14.9956 21.2475C14.9956 21.2475 14.9844 21.2394 14.9937 21.2462L14.985 21.24C14.985 21.24 14.9544 21.2169 14.96 21.2212L14.9463 21.2112C14.9369 21.2044 14.9463 21.2112 14.9463 21.2112L14.9325 21.2013C14.9325 21.2013 14.9237 21.195 14.93 21.1994L14.7975 21.105C14.7975 21.105 14.7919 21.1012 14.8012 21.1075L14.7869 21.0975C14.7869 21.0975 14.77 21.0862 14.7762 21.0906L14.7538 21.075C14.7538 21.075 14.7425 21.0675 14.7525 21.0744L14.6987 21.0381L14.6887 21.0319C14.6887 21.0319 14.6762 21.0231 14.6825 21.0275L14.6525 21.0075C14.6525 21.0075 14.6437 21.0019 14.6537 21.0087L14.6444 21.0025C14.6444 21.0025 14.6131 20.9825 14.6194 20.9862L14.6012 20.975L14.4481 20.88L14.4506 20.8819L14.435 20.8725L14.4006 20.8525C14.4006 20.8525 14.3925 20.8475 14.3988 20.8506L14.345 20.82L14.2938 20.7912L14.2419 20.7625L14.0887 20.6813C14.0456 20.6594 14.0025 20.6381 13.9587 20.6169L13.8919 20.585L13.8688 20.5744L13.8456 20.5638L13.7869 20.5375C13.7119 20.5038 13.6362 20.4719 13.56 20.4413L13.5187 20.425L13.4819 20.4106L13.445 20.3969L13.4081 20.3831C13.325 20.3525 13.2406 20.3237 13.1563 20.2962L13.1256 20.2869L13.0819 20.2731L13.0412 20.2606L13.0088 20.2513C12.9238 20.2263 12.8375 20.2031 12.7506 20.1819L12.7119 20.1725L12.6706 20.1625L12.6569 20.1594L12.5106 20.1275L12.4913 20.1238L12.4606 20.1175L12.405 20.1069L12.3706 20.1006L12.3444 20.0956L12.2794 20.0844L12.2487 20.0794C12.2281 20.0762 12.2081 20.0731 12.1875 20.07L12.1369 20.0625L12.1031 20.0581L12.065 20.0525L12.0519 20.0513L11.9606 20.04L11.9413 20.0381L11.9338 20.0369L11.8313 20.0269C11.7931 20.0231 11.755 20.02 11.7169 20.0175L11.64 20.0119L11.6313 20.0113L11.5075 20.005H11.5063L11.3788 20.0012H11.3794L11.3144 20.0006H11.3156L11.3056 20H11.2494L11.1856 20.0006H11.1788H11.1469L11.1013 20.0019L11.0687 20.0025L11.0269 20.0038L10.9925 20.005L10.9525 20.0069L10.9181 20.0087L10.8763 20.0113L10.8437 20.0131L10.775 20.0181L10.7394 20.0206L10.7025 20.0237L10.6644 20.0275L10.63 20.0306L10.5912 20.0344L10.5575 20.0381L10.5188 20.0425L10.4856 20.0463L10.4462 20.0513L10.3788 20.0606L10.34 20.0662L10.3094 20.0706L10.2694 20.0769L10.2375 20.0819L10.1981 20.0881L10.1669 20.0938L10.1275 20.1006L10.0962 20.1069L10.0569 20.1137L10.0269 20.12L9.98813 20.1275L9.9225 20.1413L9.88438 20.15L9.8525 20.1569L9.815 20.1662L9.78312 20.1737L9.74563 20.1825L9.71313 20.1906L9.67688 20.2L9.64313 20.2087L9.60813 20.2181L9.54438 20.2362L9.51188 20.2456L9.47563 20.2556L9.4425 20.2662L9.4075 20.2769L9.37438 20.2869L9.33875 20.2981L9.30625 20.3087L9.26875 20.3212L9.23937 20.3312L9.18938 20.3481L9.17375 20.3538L9.10812 20.3775L9.0825 20.3869L9.04125 20.4025L9.01375 20.4125L8.97375 20.4281L8.9475 20.4387L8.905 20.4556L8.88125 20.465L8.82937 20.4869L8.81625 20.4925L8.75062 20.5206L8.73813 20.5262L8.685 20.5494L8.66625 20.5581L8.61938 20.58L8.6 20.5888L8.5525 20.6113L8.535 20.62L8.47938 20.6469L8.47188 20.6506L8.40562 20.6844L8.34063 20.7181L8.3325 20.7225L8.27687 20.7519L8.265 20.7588L8.21187 20.7881L8.20125 20.7938L8.1425 20.8275L8.13938 20.8288L8.075 20.8669C8.05312 20.8794 8.03188 20.8925 8.01 20.9056L7.94687 20.9444L7.94437 20.9462L7.88437 20.9838L7.88063 20.9862C6.23438 22.0431 5.115 23.8506 5.00813 25.9244V25.9319L5.00438 26.0063V26.0138L5.0025 26.0825L5.00187 26.0919L5.00062 26.1625V26.1888L5 26.2037V26.25V26.2956L5.00062 26.31V26.3369L5.00187 26.4069L5.0025 26.4194L5.00438 26.4838L5.005 26.4944L5.0075 26.5637L5.00875 26.58L5.0125 26.6494L5.01313 26.6575L5.0175 26.7206L5.01875 26.7369L5.02438 26.8031L5.02563 26.8206L5.03125 26.88L5.0325 26.8913L5.03938 26.9569L5.04188 26.9769L5.04938 27.0406L5.05188 27.0581L5.05875 27.11L5.06187 27.1306L5.07062 27.1912L5.07438 27.215L5.0825 27.265L5.08438 27.2794L5.08687 27.2919L5.095 27.3412L5.1 27.3675L5.11 27.4237L5.11562 27.4506L5.12312 27.4894L5.12875 27.5169L5.14 27.5706L5.14688 27.6019L5.155 27.6375L5.15937 27.6575L5.16625 27.6856L5.17313 27.715L5.18125 27.75L5.19375 27.7975L5.20312 27.835L5.20875 27.8569L5.21812 27.89L5.22687 27.9231L5.23125 27.9394L5.24312 27.98L5.25688 28.0275L5.26875 28.0669L5.2725 28.0781L5.285 28.1188C5.28938 28.1338 5.29437 28.1494 5.29937 28.1644L5.31437 28.2106C5.74687 29.5181 6.59937 30.635 7.71187 31.4013C7.75812 31.4331 7.80438 31.4644 7.85188 31.495L7.85687 31.4981L7.90125 31.5269L7.90688 31.5306L7.95125 31.5581C7.9675 31.5681 7.98375 31.5781 8 31.5881L8.03625 31.61L8.0575 31.6231L8.09062 31.6425L8.1175 31.6581L8.14688 31.675L8.20063 31.7056L8.22187 31.7175L8.26125 31.7394L8.28312 31.7512L8.3275 31.775L8.34312 31.7831L8.405 31.8156L8.46875 31.8475L8.47938 31.8531L8.53813 31.8819L8.5425 31.8837C9.33875 32.2675 10.2288 32.4875 11.1688 32.4994L11.2006 32.5H11.235H11.2525H11.2988L11.3156 32.4994L11.5219 32.4944L11.5344 32.4938L11.5819 32.4913L11.5906 32.4906L11.7887 32.4769H11.7938L11.9838 32.4575L11.9956 32.4556L12.1775 32.4312L12.1987 32.4281L12.3719 32.3994L12.4131 32.3919L12.4625 32.3825L12.6263 32.3475L12.66 32.34L12.815 32.3019L12.8194 32.3012L12.8544 32.2919L12.9994 32.2513C13.0531 32.2356 13.1069 32.2194 13.1606 32.2019L13.1669 32.2C14.2588 31.8481 15.22 31.2031 15.9575 30.3588L15.9644 30.3519L15.9931 30.3175C16.0044 30.305 16.015 30.2925 16.0262 30.2794L16.0512 30.2494L16.0612 30.2369L16.0862 30.2075L16.0988 30.1912L16.1219 30.1631L16.1538 30.1231L16.1744 30.0975L16.1912 30.075L16.2106 30.0506L16.2313 30.0231L16.2456 30.0044L16.2794 29.9587L16.2944 29.9381L16.3169 29.9075L16.3306 29.8887L16.3644 29.8406L16.3713 29.8319L16.4006 29.7894L16.4113 29.7738L16.4388 29.7338L16.4463 29.7225L16.4813 29.67L16.4856 29.6625L16.5156 29.6156L16.5231 29.605L16.5569 29.5513L16.5919 29.4944L16.595 29.4894L16.6262 29.4369L16.63 29.4312L16.6638 29.3738C16.7175 29.2831 16.78 29.1988 16.8544 29.1231C17.0831 28.89 17.395 28.7612 17.72 28.75H17.745H23.75C23.8844 28.75 24.0181 28.7719 24.145 28.8144L27.315 29.8706L30.5569 27.71C30.93 27.4612 31.4075 27.4312 31.8087 27.6319L33.3219 28.3888L34.6412 26.4094L33.2325 25H18.3444ZM17.0144 23.8319L17.0156 23.835L17.0144 23.8319ZM16.7562 23.2925L16.7594 23.2975C16.7563 23.2925 16.7562 23.2919 16.7562 23.2925ZM16.7006 23.1906L16.7019 23.1931C16.6981 23.1869 16.6994 23.1887 16.7006 23.1906ZM15.9444 22.1263L15.9481 22.13C15.9437 22.1256 15.9438 22.125 15.9444 22.1263ZM15.7438 21.9088L15.7475 21.9125C15.7431 21.9075 15.7431 21.9075 15.7438 21.9088ZM15.6606 21.8244L15.6644 21.8281C15.6606 21.8237 15.66 21.8231 15.6606 21.8244ZM15.0369 21.2788L15.0413 21.2825C15.0363 21.2787 15.0362 21.2781 15.0369 21.2788ZM14.6987 21.0381L14.7031 21.0413C14.6981 21.0375 14.6975 21.0375 14.6987 21.0381ZM14.6012 20.975L14.6037 20.9763C14.5969 20.9719 14.5994 20.9731 14.6012 20.975Z" fill="#F77A40"/>
</g>
<defs>
<clipPath id="clip0_0_69">
<rect width="40" height="40" fill="white"/>
</clipPath>
</defs>
</svg>
